# xmcd CD database file
#
# Track frame offsets:
#	150
#	20892
#	40020
#	58472
#	88762
#	132235
#	154285
#	177020
#	200680
#
# Disc length: 2909 seconds
#
# Revision: 2
# Processed by: cddbd v1.4PL0 Copyright (c) Steve Scherf et al.
# Submitted via: CDex 1.40Release
#
DISCID=800b5b09
DTITLE=Chris Duarte Group - Texas Sugar/Strat Magik
DYEAR=1994
DGENRE=Blues
TTITLE0=My Way Down
TTITLE1=Letter To My Girlfriend
TTITLE2=C-Butt Rock
TTITLE3=Just Kissed My Baby
TTITLE4=Shiloh
TTITLE5=Scrawl
TTITLE6=What Can I Do
TTITLE7=Big-Legged Woman
TTITLE8=Borrowed Love
EXTD=YEAR: 1994 ID3G: 0
EXTT0=
EXTT1=
EXTT2=
EXTT3=
EXTT4=
EXTT5=
EXTT6=
EXTT7=
EXTT8=
PLAYORDER=
